<svg xmlns="http://www.w3.org/2000/svg" viewBox="0 0 32 32" width="32" height="32" role="img" aria-label="DayStack">
  <rect width="32" height="32" rx="8" fill="oklch(13% 0.010 250)"/>
  <path d="M9 8.5h7.25c5 0 8.75 3.15 8.75 7.5s-3.75 7.5-8.75 7.5H9V8.5Z" fill="oklch(21% 0.010 250)"/>
  <path d="M13 12h3.15c2.65 0 4.6 1.65 4.6 4s-1.95 4-4.6 4H13v-8Z" fill="oklch(13% 0.010 250)"/>
  <path d="M9 8.5h4v15H9v-15Z" fill="oklch(57% 0.170 145)"/>
  <path d="M13 8.5h3.25c5 0 8.75 3.15 8.75 7.5s-3.75 7.5-8.75 7.5H13v-3.5h3.15c2.65 0 4.6-1.65 4.6-4s-1.95-4-4.6-4H13V8.5Z" fill="oklch(57% 0.170 145)"/>
  <path d="M7 25h18" stroke="oklch(26% 0.010 250)" stroke-width="2" stroke-linecap="round"/>
</svg>
